Simulation
nRows=23
nColumns=15
endheader
time  TH_x TH_y TH_z SC_y  SC_z  SC_x  AC_y  AC_z  AC_x  GH_y  GH_z  GH_yy  EL_x  PS_y
0.0  0.000000  0.000000  0.000000  -21.481837363305974  5.049547332879065  0.3347068766571287  41.187669164372686  4.714207079200024  -8.683751498587958  79.31008384907878  9.945180295057366  -26.16030510800298  20.736039510799298  120.000000
0.04802000000000001  0.000000  0.000000  0.000000  -23.083142717096553  5.4629037448463835  0.2319571514739388  42.95713267160546  5.299963652808676  -6.694298085806317  72.41712227398263  8.0972058275527  -20.502883459160152  20.203825906966074  120.000000
0.09604000000000001  0.000000  0.000000  0.000000  -24.44174278281488  5.858158872583232  0.24794147167750083  44.70006047535128  5.888545462064459  -4.867056940793168  62.00609232166523  6.646065269344456  -11.499098216026  19.664796513200994  120.000000
0.14406000000000002  0.000000  0.000000  0.000000  -25.5303257953149  6.202061049351869  0.31448210107853736  46.303239468701335  6.444275405153101  -3.281877910989347  46.63749560483326  5.73068942075299  2.1642913925382987  19.070171391785827  120.000000
0.19208000000000003  0.000000  0.000000  0.000000  -26.451502486551142  6.508081027882091  0.3801128903113362  47.67021095317683  6.954003587341578  -1.9280877860651036  27.676522152462997  5.5832373663050525  19.057992013118223  18.40861297833254  120.000000
0.24010000000000004  0.000000  0.000000  0.000000  -27.285404875527796  6.7897505456367515  0.4163130321873136  48.792127883323246  7.425914784516344  -0.784315184236832  10.756874217356081  6.291319846460738  33.56171451411084  17.691238643158293  120.000000
0.28812000000000004  0.000000  0.000000  0.000000  -28.113519006718878  7.068982932699236  0.4262022190170649  49.67161317274763  7.871516276374357  0.19079859643012728  -0.5305257986990795  7.659547006505481  42.146563367855165  16.941860126412784  120.000000
0.33614000000000005  0.000000  0.000000  0.000000  -28.983448652061576  7.372249115393402  0.42916104265816357  50.32944881295949  8.32006363927945  1.0228883905399608  -6.952235578020332  9.459828732241842  45.659849059235356  16.176494361794422  120.000000
0.38416000000000006  0.000000  0.000000  0.000000  -29.919794567168047  7.729799225299243  0.44682490993053037  50.78316292180865  8.790404348154684  1.7345543398113357  -10.363569067016071  11.55503488940389  46.04238802796574  15.412359437514635  120.000000
0.43218000000000006  0.000000  0.000000  0.000000  -30.926147904816382  8.1479720293141  0.49824148927861184  51.040729418346295  9.285355589117625  2.350785550727336  -12.163403320915496  13.870325211978413  44.773894883724786  14.662271605709918  120.000000
0.48020000000000007  0.000000  0.000000  0.000000  -31.989987751105172  8.638036249142374  0.5990200092262443  51.12253285132194  9.797604953378242  2.8945723912812142  -13.135797592108515  16.35515657429198  42.71165815466856  13.944092370173312  120.000000
0.5282200000000001  0.000000  0.000000  0.000000  -33.091806219504804  9.199155526101185  0.7619127322142977  51.05335359958204  10.315038805191403  3.387559773119967  -13.71176037668837  18.969132662812754  40.34952614177597  13.268950770177074  120.000000
0.5762400000000001  0.000000  0.000000  0.000000  -34.21391142439517  9.828613779947318  0.9948855905384236  50.86836379659745  10.821220331760665  3.8525742884763847  -14.09501865431496  21.672018882485034  37.94316897115151  12.646227385286977  120.000000
0.62426  0.000000  0.000000  0.000000  -35.33992051623616  10.512117719886145  1.2999802476186362  50.60857892061139  11.30387721222811  4.3127986483724525  -14.379664505923527  24.424550596109107  35.624768396979825  12.079746754215238  120.000000
0.6722800000000001  0.000000  0.000000  0.000000  -36.46046139924716  11.235088653006844  1.6746623206554119  50.32058190963904  11.758026314341768  4.789602311478881  -14.599712593509693  27.1870347500766  33.45008773569557  11.570444259199599  120.000000
0.7203000000000002  0.000000  0.000000  0.000000  -37.56654144776584  11.976108313510531  2.122871838849049  50.04965698669487  12.18565850675806  5.295995983138747  -14.773006025853777  29.92075709541965  31.438349446082686  11.111051102732212  120.000000
0.7683200000000001  0.000000  0.000000  0.000000  -38.65103454751886  12.713141387491989  2.657136003633202  49.83545247808464  12.596363216791666  5.841148348837499  -14.908655590770149  32.58657545989011  29.581893700809275  10.687698497296003  120.000000
0.8163400000000001  0.000000  0.000000  0.000000  -39.69979348112184  13.422912714965529  3.295393968197187  49.70593957869168  13.010271252423758  6.428939652339501  -15.020532160496877  35.14954129728977  27.864122961482252  10.278862585055185  120.000000
0.8643600000000001  0.000000  0.000000  0.000000  -40.69649031722505  14.08515278891696  4.055732901500809  49.67600915695841  13.450010760552141  7.061664702709824  -15.124252358426803  37.58231230540783  26.26736471638775  9.862466905654962  120.000000
0.9123800000000002  0.000000  0.000000  0.000000  -41.62003876618307  14.679462726491488  4.949961093756358  49.743908213465104  13.932108759688903  7.738469466141802  -15.242378201572865  39.8675772689555  24.786237680009265  9.421725580178226  120.000000
0.9604000000000001  0.000000  0.000000  0.000000  -42.45194065321218  15.190630731663369  5.975934641459672  49.896669866362195  14.458558919227759  8.45160909722998  -15.401060040741033  41.99786547296025  23.43295343155492  8.954304417688173  120.000000
1.00842  0.000000  0.000000  0.000000  -43.17667924647181  15.60833870008588  7.112631074360486  50.112991908943634  15.017521213430097  9.1871633386196  -15.626988741155923  43.9751672291147  22.235740406304938  8.47327197565846  120.000000
1.0564400000000003  0.000000  0.000000  0.000000  -43.786480837223664  15.928393194248425  8.32448833770623  50.36729291522427  15.585963647164508  9.928801828679445  -15.939190418548428  45.80859829739974  21.22888971702361  8.003540068220591  120.000000
